<svg width="17" height="16" viewBox="0 0 17 16" fill="none" xmlns="http://www.w3.org/2000/svg">
<path fill-rule="evenodd" clip-rule="evenodd" d="M6.15063 0C3.09671 0 0.618164 2.56 0.618164 5.71429C0.618164 8.86857 3.09671 11.4286 6.15063 11.4286C7.5457 11.4286 8.81861 10.8928 9.79232 10.0133L11.3981 11.6718C11.2016 12.096 11.2724 12.619 11.6123 12.9719L14.2201 15.6654C14.652 16.1115 15.3531 16.1115 15.7851 15.6654C16.2171 15.2192 16.2171 14.4951 15.7851 14.0489L13.1773 11.3554C12.8374 11.0043 12.3293 10.9312 11.9186 11.1342L10.3128 9.47566C11.1661 8.46994 11.6831 7.1552 11.6831 5.71429C11.6831 2.56183 9.20278 0 6.15063 0ZM6.15063 0.762514C8.79559 0.762514 10.9448 2.9824 10.9448 5.71429C10.9448 7.04 10.4385 8.24137 9.61705 9.13006C9.58342 9.14834 9.55332 9.17029 9.52499 9.19954C9.49667 9.2288 9.47542 9.25989 9.45772 9.29463C8.59731 10.1431 7.43239 10.6661 6.15063 10.6661C3.50567 10.6661 1.35642 8.44617 1.35642 5.71429C1.35642 2.9824 3.5039 0.762514 6.15063 0.762514ZM12.3948 11.7833C12.4904 11.7833 12.5842 11.8199 12.655 11.8949L15.2628 14.5883C15.4062 14.7365 15.4062 14.9778 15.2628 15.1278C15.1194 15.2777 14.8857 15.2759 14.7406 15.1278L12.1328 12.4343C11.9876 12.2843 11.9876 12.0448 12.1328 11.8949C12.2054 11.8199 12.2992 11.7833 12.393 11.7833H12.3948Z" fill="#EFEFEF"/>
</svg>
